<?xml version="1.0" encoding="UTF-8"?>
<svg width="24px" height="24px" viewBox="0 0 24 24" version="1.1" xmlns="http://www.w3.org/2000/svg">
    <g stroke="none" stroke-width="1" fill="none" fill-rule="evenodd">
        <path d="M12,2 C17.5228475,2 22,6.4771525 22,12 C22,17.5228475 17.5228475,22 12,22 C10.1240833,22 8.36725623,21.5109195 6.85714286,20.6587304 L2.03951367,22 L3.38069242,17.1925538 C2.52864574,15.6736864 2.03174603,13.9015345 2.03174603,12 C2.03174603,6.4771525 6.4771525,2 12,2 Z M8.42857143,7.71428571 C8.26190476,7.71428571 8,7.77777778 7.77777778,8 C7.55555556,8.22222222 7,8.71428571 7,9.65079365 C7,10.5873016 7.65079365,11.4920635 7.77777778,11.6825397 C7.87301587,11.8730159 9.11111111,13.8095238 11,14.6825397 C12.6666667,15.4285714 12.6666667,15.2380952 13.1111111,15.2063492 C13.5555556,15.1746032 14.3650794,14.7142857 14.5555556,14.1428571 C14.7460317,13.5714286 14.7460317,13.0793651 14.6825397,12.984127 C14.6190476,12.8888889 14.4285714,12.8253968 14.1428571,12.6666667 C13.8571429,12.5079365 12.8888889,12.0476191 12.6349206,11.9523809 C12.3809524,11.8571429 12.1904762,11.8253968 12,12.0476191 C11.8095238,12.2698413 11.4285714,12.6666667 11.2698413,12.8253968 C11.1111111,13.0158731 10.9206349,13.047619 10.6984127,12.8888889 C10.4761905,12.7301587 9.84126984,12.5079365 9.07936508,11.8253968 C8.47619048,11.2857143 8.06349206,10.6190476 7.90476191,10.3650794 C7.74603175,10.1111111 7.87301587,9.96825397 8,9.82539683 C8.09523809,9.71428571 8.25396825,9.52380952 8.38095238,9.36507937 C8.50793651,9.20634921 8.53968254,9.07936508 8.6031746,8.92063492 C8.66666667,8.76190476 8.6031746,8.6031746 8.57142857,8.47619048 C8.53968254,8.34920635 8.12698413,7.38095238 7.90476191,6.93650794 C7.68253968,6.49206349 7.46031746,6.55555556 7.30158731,6.55555556 C7.14285714,6.55555556 6.95238096,6.52380952 6.76190477,6.52380952 C6.57142858,6.52380952 6.25396825,6.55555556 5.96825397,6.84126984 C5.68253968,7.12698413 5.15873016,7.58730159 5.15873016,8.55555556 C5.15873016,9.52380952 5.84126984,10.4603175 5.96825397,10.6190476 C6.09523809,10.7777778 8.06349206,13.8730159 11.047619,15.2380952 C11.7301587,15.5555556 12.2539683,15.7460317 12.6666667,15.8730159 C13.3492063,16.0952381 13.968254,16.0634921 14.4603175,16.0317461 C15.015873,15.9682539 15.7936508,15.5714286 16.015873,15.0317461 C16.2380952,14.4920635 16.2380952,14.047619 16.1746032,13.9206349 C16.1111111,13.7936508 15.9523809,13.7301587 15.6984127,13.5714286 L8.42857143,7.71428571 Z" fill="currentColor"></path>
    </g>
</svg>
